<svg version="1" xmlns="http://www.w3.org/2000/svg" width="1333.333" height="1333.333" viewBox="0 0 1000.000000 1000.000000"><path d="M246 171.1c-22.3.4-57 .7-77.2.8l-36.8.1-62.9 125.8L6.2 423.6l-1.5 11.6-1.5 11.7 12.1 11.9c6.7 6.5 42.1 40.6 78.7 75.6 74.6 71.6 76.3 73.2 75.8 74.6-.3.9-23.7 14.7-96.7 56.6-19.4 11.1-35.6 20.5-35.9 20.8-.9.9 7.4 19.6 17.3 39.1s22.6 41.2 33 56.1c6.3 9 7.7 10.2 27.2 25.2 11.3 8.6 21.1 15.6 21.7 15.4.6-.1 42.1-14.6 92.1-32.2 50.1-17.5 104.5-36.6 121-42.4 16.5-5.7 30.7-10.7 31.7-11.1.9-.3 2.1-1.8 2.7-3.3 1.4-3.6 49.4-139.9 53.6-152.3l3.3-9.7-116.9-78.7c-64.3-43.4-116.8-79.1-116.7-79.5.2-.3 7.3-12.6 15.8-27.3 9.6-16.5 16-26.5 16.7-26.2.7.2 26.2 21.9 56.7 48.1 30.5 26.2 55.6 47.7 55.9 47.8.4.1 37-40.7 80.3-89.5 10-11.2 21.9-24.7 26.6-29.9l8.5-9.5-10.8-15c-6-8.3-15.7-21.7-21.6-29.8-6-8.1-26.6-36.5-45.8-63l-35.1-48.2h-33.9c-18.7 0-52.2.3-74.5.6zM775.7 174.4l-5.4 4.5-.7 26.8c-.3 14.7-1.1 56.7-1.6 93.3-.6 36.6-1.3 76.5-1.6 88.7l-.6 22.3-2.7-.1c-1.4 0-24.2-4.4-50.6-9.7l-48-9.7-1.8-79c-.9-43.5-2.1-81-2.5-83.4l-.7-4.5-87.3-14.8-87.4-14.8-5.8 5.1-5.8 5 .4 7.7c.4 6.9 13.7 338.2 14.9 369.7 2.3 64.6 8.7 224.6 9.1 227 .3 2.2 2 4.4 5.8 7.6l5.4 4.5 40.3-4.7c22.2-2.6 44.9-5.2 50.4-5.9 5.5-.6 16.5-2 24.5-3 8-1.1 17-2.2 20.1-2.6l5.6-.6.7-10.1c.3-5.6 1.1-22.1 1.6-36.7.5-14.6 1.9-49.9 3-78.5 1-28.6 2.2-61.5 2.6-73 .3-11.6.8-21.2 1-21.4.1-.2 11.2 2.4 24.6 5.7 13.4 3.3 36 8.9 50.3 12.3 14.3 3.4 26.1 6.2 26.2 6.3.3.3 2.2 26.7 8.8 122.6 3 45.4 5.8 84 6.1 85.7l.5 3.3h108.6l8-10.2c10.4-13.3 20-26.6 27.8-38.7l6.2-9.6 7.7-118.5c4.2-65.2 8.3-127.1 9.1-137.5.8-10.5 1.9-26.7 2.5-36 .6-9.4 1.5-23.3 2-31 .5-7.7 1.4-21.4 2-30.5.5-9.1 2.4-38.1 4.1-64.4l3.1-47.9-9.1-18.1c-13.8-27.8-33.8-59.8-49.4-79.6l-4.3-5.5-55-11.3C808.2 175 783 170 782.3 170c-.6 0-3.6 2-6.6 4.4z"/></svg>