<svg version="1" xmlns="http://www.w3.org/2000/svg" width="1333.333" height="1333.333" viewBox="0 0 1000.000000 1000.000000"><path d="M793 173.7c-5.2 4.3-5.5 4.8-6.1 10.2-.4 3.1-.7 20-.8 37.6-.1 17.6-.4 34.9-.6 38.5-.3 3.6-1 38.7-1.6 78-.5 39.3-1.2 71.6-1.4 71.9-.3.2-4.2-.3-8.7-1.3-4.6-.9-21.8-4.3-38.3-7.6-40.5-8.2-52.6-10.7-53.1-11.3-.4-.4-4.4-144.8-4.4-160.2v-6l-87.6-14.9c-97.4-16.5-88.9-15.8-96.4-8.1l-4.2 4.2 1.1 23.4c.6 12.9 1.5 34.9 2.1 48.9.6 14 1.5 36.1 2 49 .5 12.9 1.4 35.2 2 49.5 1.2 29.7 2.5 63 4 98.7 1 23.6 1.6 40.6 4 98.8 1.8 44.1 4.6 113.1 6 148 .5 12.9 1.4 35.6 2 50.5.6 14.8 1.2 29.9 1.3 33.3.3 6 .5 6.6 4.3 9.8 2.1 1.9 4.8 4.1 5.9 4.9 1.8 1.2 9.7.5 65-6.1 34.7-4.1 65.7-7.7 69-8.1 9.1-.9 9.5-1.3 9.5-9.1 0-3.7.4-14.6 1-24.2.5-9.6 1.7-36 2.5-58.5.9-22.6 2-52.3 2.6-66 .5-13.8 1-32.9 1-42.5.1-9.6.4-18.2.7-19.1.6-1.3 3.2-.9 20.2 3.2 10.7 2.5 33.3 8 50.2 12l30.7 7.3.5 7.1c.3 3.8 1 13.7 1.6 22 1 14.1 1.6 23.3 4 58.5.5 8 1.4 21.5 2 30 .6 8.5 1.5 21.3 2 28.5.5 7.1 1.4 21.1 2.1 31 .6 9.9 1.4 21.8 1.8 26.5l.6 8.5 73.7.3 73.7.2.5-5.2c.3-2.9 4.7-68.1 9.6-144.8 4.9-76.7 9.7-146.9 10.5-156 .8-9.1 2.2-27.5 3-41 .8-13.5 2-30.4 2.5-37.5.5-7.2 1.4-22.2 2-33.5.6-11.3 3.6-60 6.7-108.3s5.4-87.9 5.2-88.1c-.4-.4-42.2-9.1-130.4-27.2-25.3-5.1-46.9-9.6-48-9.8-1.3-.3-3.9 1.1-7.5 4.1zM283.9 170.4c-.2.2-31 .6-68.3 1-37.4.4-68.1.8-68.2.9-.1.1-29.9 59.7-66.3 132.4C33.2 400.5 15 437.9 15 440.3c0 3.1 2 5.3 22.3 24.8 12.2 11.8 50.7 48.8 85.5 82.3s63.2 61.2 63 61.7c-.2.5-36.6 21.7-80.9 47.2-44.4 25.4-81.5 46.9-82.7 47.7-1.6 1.2-2.1 3.1-2.6 9.6l-.6 8.1 44.2 33.9c24.3 18.6 47.2 36.1 50.8 38.9 3.6 2.7 13 10 21 16.1 8 6.1 15 11.4 15.7 11.8.7.3 18-5.2 38.5-12.5 67.2-23.6 146.7-51.4 178.6-62.5 17.3-6 31.8-11.1 32.3-11.4.4-.3 4.7-11.6 9.4-25 4.8-13.5 12.4-35.1 17-48 11.8-33.4 31.4-89.3 31.7-90.7.2-.6-51.9-36.3-115.7-79.2-63.8-43-116.3-78.5-116.8-79-.7-.7 26.9-49.8 29.8-52.9 1-1.1 9.8 6 47.6 38.4 25.5 21.9 50.6 43.5 55.8 48 5.9 5.1 10 8 11 7.7 1.9-.6 67.3-73.6 68.3-76.3.3-1 10.8-13.1 23.2-27 13.4-15 22.3-25.7 21.9-26.3-.4-.7-4.7-6.7-9.6-13.5-4.9-6.7-9-12.9-9.1-13.7-.3-2.1-20.8-30.4-22.1-30.5-.5 0-17-22.1-36.4-49l-35.5-49h-43.1c-23.8 0-43.4.2-43.6.4z"/></svg>